<svg width="32" height="32" viewBox="0 0 32 32" fill="none" xmlns="http://www.w3.org/2000/svg">
<g clip-path="url(#clip0_25_89)">
<path d="M3.89999 18.8999L18.9 3.89994C21.4 1.29994 25.5 1.29994 28.1 3.79994C30.7 6.29994 30.7 10.4999 28.1 12.9999L28 13.0999L25.2 15.9999L23.8 14.5999L26.7 11.6999C28.4 9.99994 28.4 7.09994 26.7 5.39994C25 3.69994 22.1 3.59994 20.4 5.29994C20.4 5.29994 20.4 5.29994 20.3 5.39994L5.39999 20.2999C3.59999 21.9999 3.59999 24.8999 5.29999 26.5999C6.99999 28.3999 9.89999 28.3999 11.6 26.6999C11.6 26.6999 11.6 26.6999 11.7 26.5999L19.1 19.1999C20.1 18.1999 20 16.5999 19.1 15.6999C18.1 14.7999 16.6 14.7999 15.6 15.6999L11.5 19.7999L10.1 18.3999L14.3 14.1999C16.1 12.4999 18.9 12.5999 20.6 14.3999C22.2 16.0999 22.2 18.7999 20.6 20.5999L13.1 28.0999C10.6 30.6999 6.49999 30.6999 3.89999 28.1999C1.29999 25.6999 1.29999 21.4999 3.89999 18.8999C3.89999 18.9999 3.89999 18.8999 3.89999 18.8999Z" fill="#BBBBBB"/>
</g>
<defs>
<clipPath id="clip0_25_89">
<rect width="32" height="32" fill="white" transform="matrix(-1 0 0 1 32 0)"/>
</clipPath>
</defs>
</svg>
